<svg width="256" height="256" viewBox="0 0 256 256" fill="none" xmlns="http://www.w3.org/2000/svg">
<path d="M148.724 72.5713C148.279 69.3539 146.02 67 143.374 67H21.3698C17.8537 67 15.0067 70.5185 15.0067 74.851C15.0067 79.1914 17.8537 82.706 21.3698 82.706H51.0613C54.5774 82.706 57.4244 86.2251 57.4244 90.5616C57.4244 94.898 54.5774 98.4166 51.0613 98.4166H11.3631C7.85027 98.4166 5 101.935 5 106.272C5 110.608 7.85027 114.122 11.3631 114.122H65.4735C68.5783 114.122 71.0973 117.236 71.0973 121.069C71.0973 124.902 68.5783 128.011 65.4735 128.011H36.7254C33.2093 128.011 30.3623 131.531 30.3623 135.867C30.3623 140.203 33.2093 143.722 36.7254 143.722H57.9128C61.0204 143.722 63.5399 146.832 63.5399 150.664C63.5399 154.497 61.0204 157.607 57.9128 157.607H28.6629C25.1469 157.607 22.2998 161.125 22.2998 165.462C22.2998 169.798 25.1469 173.317 28.6629 173.317H68.8662L71.4018 191.022H85.965C85.1084 193.591 84.62 196.395 84.62 199.348C84.62 211.465 92.5753 221.286 102.392 221.286C112.204 221.286 120.16 211.465 120.16 199.348C120.16 196.395 119.671 193.591 118.815 191.022H165.036L148.724 72.5713ZM110.039 199.347C110.039 204.564 106.617 208.789 102.391 208.789C98.1627 208.789 94.7399 204.564 94.7399 199.347C94.7399 195.718 96.4157 192.604 98.8483 191.021H105.931C108.363 192.604 110.039 195.717 110.039 199.347Z" fill="white"/>
<path d="M249.695 179.515L241.937 136.488L211.975 87.1676L156.072 86.3197L171.794 191.612L192.242 191.922C191.222 194.386 190.618 197.084 190.575 199.934C190.397 211.627 199.418 221.244 210.721 221.415C222.029 221.587 231.336 212.248 231.514 200.555C231.557 197.705 231.035 194.99 230.087 192.496L238.997 192.631C242.211 192.68 245.278 191.236 247.351 188.692C249.421 186.153 250.285 182.781 249.695 179.515ZM187.419 106.345L201.424 106.557L219.167 135.756L191.751 135.34L187.419 106.345ZM219.856 200.378C219.779 205.412 215.775 209.429 210.904 209.355C206.04 209.281 202.156 205.145 202.233 200.111C202.286 196.608 204.266 193.632 207.087 192.147L215.246 192.271C218.024 193.84 219.909 196.874 219.856 200.378Z" fill="white"/>
</svg>
