<svg width="256" height="256" viewBox="0 0 256 256" fill="none" xmlns="http://www.w3.org/2000/svg">
<path d="M203.421 73.2631H141.666V62.0351C141.666 54.2877 135.379 48 127.631 48C119.884 48 113.596 54.2877 113.596 62.0351V73.2631H51.8421C42.5397 73.2631 35 80.8028 35 90.1052V191.158C35 200.46 42.5397 208 51.8421 208H203.421C212.723 208 220.263 200.46 220.263 191.158V90.1052C220.263 80.8028 212.723 73.2631 203.421 73.2631ZM127.631 56.421C130.733 56.421 133.245 58.9333 133.245 62.0351C133.245 65.1368 130.733 67.6491 127.631 67.6491C124.53 67.6491 122.017 65.1368 122.017 62.0351C122.017 58.9333 124.53 56.421 127.631 56.421ZM91.1402 97.1227C104.097 97.1227 114.599 107.627 114.599 120.581C114.599 133.535 104.097 144.039 91.1402 144.039C78.183 144.039 67.6819 133.536 67.6819 120.581C67.6819 107.627 78.183 97.1227 91.1402 97.1227ZM127.631 188.351H54.6491V177.925C54.6491 163.528 66.318 151.859 80.7151 151.859H101.568C115.963 151.859 127.631 163.528 127.631 177.925V188.351ZM200.613 135.017H147.28V126.596H200.613V135.017ZM203.421 115.368H133.245V106.947H203.421V115.368Z" fill="white"/>
</svg>
