<svg width="256" height="256" viewBox="0 0 256 256" fill="none" xmlns="http://www.w3.org/2000/svg">
<path d="M196.08 42.0274H134.431C130.49 41.7388 127.112 43.7593 124.297 46.6458L48.8559 124.292C42.3814 130.931 42.3814 141.9 48.8559 148.827L108.534 210.021C115.008 216.66 125.705 216.66 132.461 210.021L208.747 131.508C211.562 128.622 213.251 124.004 212.97 119.963V59.3463C212.97 49.8209 205.369 42.0274 196.08 42.0274ZM135.276 169.033L131.335 173.074C129.083 175.383 125.705 175.383 123.453 173.074L85.1692 133.818C82.9172 131.508 82.9172 128.045 85.1692 125.735L89.1101 121.694C91.3621 119.385 94.7401 119.385 96.9921 121.694L135.276 160.951C137.528 163.26 137.528 166.724 135.276 169.033ZM157.796 145.941L153.855 149.982C151.603 152.291 148.225 152.291 145.973 149.982L107.689 110.726C105.437 108.417 105.437 104.953 107.689 102.644L111.63 98.6025C113.882 96.2933 117.26 96.2933 119.512 98.6025L157.796 137.859C160.048 140.168 160.048 143.632 157.796 145.941ZM173.56 96.8706C165.678 96.8706 159.485 90.5204 159.485 82.4382C159.485 74.3561 165.678 68.0058 173.56 68.0058C181.442 68.0058 187.635 74.3561 187.635 82.4382C187.635 90.5204 181.442 96.8706 173.56 96.8706Z" fill="white"/>
</svg>
