<svg id="visual" viewBox="0 0 900 300" width="900" height="300" xmlns="http://www.w3.org/2000/svg" xmlns:xlink="http://www.w3.org/1999/xlink" version="1.1"><path d="M0 262L13.7 262C27.3 262 54.7 262 82 260.7C109.3 259.3 136.7 256.7 163.8 257.7C191 258.7 218 263.3 245.2 263.2C272.3 263 299.7 258 327 258.3C354.3 258.7 381.7 264.3 409 267.3C436.3 270.3 463.7 270.7 491 267.2C518.3 263.7 545.7 256.3 573 253.3C600.3 250.3 627.7 251.7 654.8 254.7C682 257.7 709 262.3 736.2 264.8C763.3 267.3 790.7 267.7 818 264.5C845.3 261.3 872.7 254.7 886.3 251.3L900 248L900 301L886.3 301C872.7 301 845.3 301 818 301C790.7 301 763.3 301 736.2 301C709 301 682 301 654.8 301C627.7 301 600.3 301 573 301C545.7 301 518.3 301 491 301C463.7 301 436.3 301 409 301C381.7 301 354.3 301 327 301C299.7 301 272.3 301 245.2 301C218 301 191 301 163.8 301C136.7 301 109.3 301 82 301C54.7 301 27.3 301 13.7 301L0 301Z" fill="#1F486F" stroke-linecap="round" stroke-linejoin="miter"></path></svg>